<svg xmlns="http://www.w3.org/2000/svg" xmlns:xlink="http://www.w3.org/1999/xlink" width="2000" zoomAndPan="magnify" viewBox="0 0 1500 1499.999933" height="2000" preserveAspectRatio="xMidYMid meet" version="1.0"><defs><g/><clipPath id="d42251bd45"><rect x="0" width="888" y="0" height="1194"/></clipPath><clipPath id="d446017a13"><path d="M 0 154 L 954 154 L 954 1193 L 0 1193 Z M 0 154 " clip-rule="nonzero"/></clipPath><clipPath id="512b65ba44"><rect x="0" width="999" y="0" height="1362"/></clipPath></defs><g transform="matrix(1, 0, 0, 1, 603, 306)"><g clip-path="url(#d42251bd45)"><g fill="#e5ae18" fill-opacity="1"><g transform="translate(19.213866, 883.323052)"><g><path d="M 455.671875 0 L 453.46875 -42.578125 L 403.6875 -42.578125 L 402.03125 0 L -4.984375 0 L 217.875 -752.0625 L 638.140625 -752.0625 L 861.5625 0 Z M 413.09375 -248.296875 L 441.296875 -248.296875 L 432.453125 -407.5625 L 420.28125 -407.5625 Z M 413.09375 -248.296875 "/></g></g></g></g></g><g transform="matrix(1, 0, 0, 1, 0, 0.000000000000112861)"><g clip-path="url(#512b65ba44)"><g clip-path="url(#d446017a13)"><g fill="#e5ae18" fill-opacity="1"><g transform="translate(-79.812961, 1084.850723)"><g><path d="M 81.203125 -924.9375 C 77.535156 -926.769531 78.453125 -927.6875 83.953125 -927.6875 C 93.128906 -929.519531 140.390625 -930.4375 225.734375 -930.4375 L 377.125 -930.4375 L 378.5 -732.234375 L 378.5 -525.78125 L 395.03125 -546.421875 C 469.351562 -645.523438 529.679688 -725.816406 576.015625 -787.296875 C 622.359375 -848.773438 655.164062 -893.28125 674.4375 -920.8125 L 681.3125 -930.4375 L 1033.671875 -930.4375 L 1026.78125 -923.5625 C 1010.269531 -905.207031 980.445312 -871.941406 937.3125 -823.765625 C 894.1875 -775.597656 837.757812 -711.140625 768.03125 -630.390625 C 698.289062 -549.640625 636.578125 -477.835938 582.890625 -414.984375 C 529.210938 -352.128906 483.109375 -297.757812 444.578125 -251.875 L 377.125 -172.046875 L 377.125 104.609375 L 107.359375 104.609375 L 107.359375 -407.40625 C 107.359375 -574.414062 107.128906 -698.289062 106.671875 -779.03125 C 106.210938 -859.78125 105.066406 -901.53125 103.234375 -904.28125 C 98.640625 -914.375 91.296875 -921.257812 81.203125 -924.9375 Z M 593.21875 -373 C 655.613281 -444.570312 688.648438 -480.359375 692.328125 -480.359375 C 693.242188 -478.523438 695.535156 -474.625 699.203125 -468.65625 C 702.878906 -462.695312 708.382812 -453.753906 715.71875 -441.828125 C 720.3125 -434.484375 731.09375 -416.128906 748.0625 -386.765625 C 765.039062 -357.398438 784.769531 -322.757812 807.25 -282.84375 C 829.726562 -242.925781 853.8125 -200.488281 879.5 -155.53125 C 905.195312 -110.570312 928.597656 -69.050781 949.703125 -30.96875 C 970.804688 7.113281 988.46875 38.769531 1002.6875 64 C 1016.914062 89.238281 1024.03125 102.773438 1024.03125 104.609375 C 1024.03125 106.441406 969.4375 106.441406 860.25 104.609375 L 696.453125 104.609375 L 662.046875 41.296875 C 647.359375 14.679688 630.609375 -15.828125 611.796875 -50.234375 C 592.992188 -84.648438 571.660156 -123.421875 547.796875 -166.546875 C 515.679688 -225.265625 499.625 -255.085938 499.625 -256.015625 C 499.625 -257.847656 530.820312 -296.84375 593.21875 -373 Z M 593.21875 -373 "/></g></g></g></g></g></g></svg>